Coordinates
version=1
nRows=14
nColumns=40
inDegrees=yes

Units are S.I. units (second, meters, Newtons, ...)
Angles are in degrees.

endheader
time	pelvis_tilt	pelvis_list	pelvis_rotation	pelvis_tx	pelvis_ty	pelvis_tz	hip_flexion_r	hip_adduction_r	hip_rotation_r	knee_angle_r	knee_angle_r_beta	ankle_angle_r	subtalar_angle_r	mtp_angle_r	hip_flexion_l	hip_adduction_l	hip_rotation_l	knee_angle_l	knee_angle_l_beta	ankle_angle_l	subtalar_angle_l	mtp_angle_l	lumbar_extension	lumbar_bending	lumbar_rotation	arm_flex_r	arm_add_r	arm_rot_r	elbow_flex_r	pro_sup_r	wrist_flex_r	wrist_dev_r	arm_flex_l	arm_add_l	arm_rot_l	elbow_flex_l	pro_sup_l	wrist_flex_l	wrist_dev_l
     25.26500000	     -4.22245771	     -5.75661361	     10.09020122	      0.99500347	      0.91531763	      0.50598870	     -0.73072692	      3.52251418	    -14.55118781	     15.10599196	     15.10599196	     19.47242248	     -2.69676648	     -1.63231551	     29.66106904	     -6.32943778	      7.69919694	     26.53922333	     26.53922333	      6.18848236	     -7.02377463	     -0.10129229	     -7.96376100	      3.08119643	      6.01484658	     54.42095012	    -16.01659764	     -0.26461559	    104.09029210	     43.91542688	      0.00000000	      0.00000000	    -16.89990406	    -13.51231674	     19.25898530	     36.92031346	     43.62592756	      0.00000000	      0.00000000
     25.28742857	     -4.56040715	     -5.74976803	      9.47827522	      0.99634077	      0.91616586	      0.50086669	     -0.93348466	      3.00624638	    -14.72415623	     14.85769989	     14.85769989	     19.07217670	     -1.46371023	     -1.62752578	     29.52937712	     -6.15545664	      7.31673267	     26.76598612	     26.76598612	      6.76492710	     -7.45759854	      0.33959729	     -7.84345033	      3.00598951	      5.87410188	     54.31527226	    -15.51737815	      0.08216972	    102.79581642	     44.00365046	      0.00000000	      0.00000000	    -16.50621324	    -14.02530042	     18.58256414	     37.44537311	     43.82454837	      0.00000000	      0.00000000
     25.30985714	     -4.86616230	     -5.83001297	      8.79538828	      0.99771189	      0.91729801	      0.49595042	     -1.15221615	      2.64861969	    -14.55331969	     14.55296851	     14.55296851	     18.47560043	     -0.71456789	     -1.47025991	     29.24459722	     -6.15988849	      6.79714662	     26.74355160	     26.74355160	      7.15908442	     -7.71479029	      0.31708517	     -7.74905083	      2.99868967	      6.04921328	     53.90893584	    -15.53163989	      0.10634452	    101.89009770	     44.04670518	      0.00000000	      0.00000000	    -15.86078575	    -14.56259278	     18.24078432	     37.74860438	     43.90390099	      0.00000000	      0.00000000
     25.33228571	     -5.21879331	     -5.90883344	      8.05005261	      0.99894110	      0.91848551	      0.49117800	     -1.19862764	      2.25734205	    -14.30662402	     14.44228635	     14.44228635	     17.92051433	     -0.05109847	     -1.35506911	     28.93868991	     -6.19528333	      6.17535369	     26.59837003	     26.59837003	      7.50859356	     -7.93850142	      0.27110809	     -7.62161179	      3.04799686	      6.09766724	     53.26403016	    -15.31505469	      0.22549958	    101.21251958	     44.06885618	      0.00000000	      0.00000000	    -15.21368116	    -15.05145080	     18.01244988	     37.98612174	     43.95145069	      0.00000000	      0.00000000
     25.35471429	     -5.51591166	     -5.95058973	      7.28889132	      1.00016026	      0.91998476	      0.48646627	     -1.26716798	      1.77695993	    -14.36598909	     14.40095969	     14.40095969	     17.34260001	      1.13223818	     -1.35868190	     28.40448318	     -6.25190645	      5.40349908	     26.15675716	     26.15675716	      7.84630093	     -7.85981628	      0.20689474	     -7.49440085	      3.01365079	      6.12325663	     52.49620061	    -15.31487779	      0.05121093	     99.57612552	     44.13864333	      0.00000000	      0.00000000	    -14.61285571	    -15.57267086	     17.65926727	     38.34074915	     44.02932475	      0.00000000	      0.00000000
     25.37714286	     -5.81740230	     -6.01552988	      6.50395232	      1.00122674	      0.92148721	      0.48186498	     -1.12834306	      1.28165463	    -14.39030138	     14.69571187	     14.69571187	     16.78856383	      2.17746344	     -1.45423679	     27.86147672	     -6.34110528	      4.58898228	     25.67015984	     25.67015984	      8.13689910	     -7.78926754	      0.05603865	     -7.36040785	      3.07364050	      5.95289706	     51.60916471	    -14.97552790	     -0.10688679	     97.87596035	     44.21354356	      0.00000000	      0.00000000	    -14.00132646	    -15.97028830	     17.25876606	     38.65850917	     44.12216006	      0.00000000	      0.00000000
     25.39957143	     -6.11924373	     -6.06042175	      5.70135185	      1.00215000	      0.92309014	      0.47746048	     -0.80144717	      0.76344171	    -14.24374763	     15.28389694	     15.28389694	     16.22563745	      2.85144887	     -1.60292871	     27.21225067	     -6.41377519	      3.76589053	     24.97471085	     24.97471085	      8.38510545	     -7.66489034	     -0.08958263	     -7.24000481	      3.08302759	      5.81490145	     50.37351686	    -14.81413384	     -0.26852534	     96.21258334	     44.28146136	      0.00000000	      0.00000000	    -13.30564644	    -16.38298200	     16.85257967	     38.84434335	     44.20720144	      0.00000000	      0.00000000
     25.42200000	     -6.38820567	     -6.08663556	      4.94165259	      1.00300501	      0.92472518	      0.47297696	     -0.32694497	      0.21078431	    -14.00797180	     16.17344020	     16.17344020	     15.64061260	      3.18228639	     -1.80939895	     26.51291264	     -6.43714983	      2.94271037	     24.22778192	     24.22778192	      8.59924092	     -7.56490385	     -0.17906726	     -7.15199812	      3.15356868	      5.60085050	     48.74188221	    -14.73557240	     -0.37287223	     94.66453075	     44.33607152	      0.00000000	      0.00000000	    -12.47470079	    -16.67194540	     16.53373379	     38.98653163	     44.27134999	      0.00000000	      0.00000000
     25.44442857	     -6.60582891	     -6.09500711	      4.16131304	      1.00363443	      0.92617876	      0.46862353	      0.54457899	     -0.46479241	    -13.78457495	     17.86911493	     17.86911493	     15.04129907	      3.28979605	     -2.61147985	     25.78990005	     -6.43030307	      2.17400165	     23.50769521	     23.50769521	      8.73334194	     -7.54768980	     -0.52124971	     -7.04024018	      3.20016381	      5.51318100	     47.21668051	    -14.57712579	     -0.94968512	     91.91152193	     44.45281630	      0.00000000	      0.00000000	    -11.33823122	    -16.82823673	     15.98726418	     38.83807452	     44.38321708	      0.00000000	      0.00000000
     25.46685714	     -6.76489830	     -6.11418077	      3.44458534	      1.00413017	      0.92757914	      0.46422127	      1.55013945	     -1.08639787	    -13.28084292	     19.81155274	     19.81155274	     14.09946886	      2.69981157	     -4.05237909	     25.06015205	     -6.35421127	      1.63865961	     22.83328369	     22.83328369	      8.73595778	     -7.83414874	     -0.98063126	     -7.00140250	      3.32097538	      5.16407849	     45.46697175	    -14.14237266	     -1.52498289	     88.75731169	     44.58821522	      0.00000000	      0.00000000	    -10.11125529	    -16.81085951	     15.23960671	     38.22999985	     44.53594832	      0.00000000	      0.00000000
     25.48928571	     -6.82682841	     -6.06467029	      2.79132491	      1.00461098	      0.92879090	      0.45974715	      2.69900929	     -1.75293559	    -12.58478573	     22.07923436	     22.07923436	     12.19614158	      1.10200482	     -8.11499867	     24.21769165	     -6.16204434	      1.15942834	     22.09603093	     22.09603093	      8.50910516	     -8.32672068	     -1.86615564	     -7.05140518	      3.43006528	      4.64085394	     43.69898885	    -13.73003623	     -1.72657858	     85.28218514	     44.77653186	      0.00000000	      0.00000000	     -8.76913469	    -16.35600912	     12.94385559	     37.29524400	     45.00299956	      0.00000000	      0.00000000
     25.51171429	     -6.83560890	     -6.01511149	      2.15918356	      1.00491312	      0.92966432	      0.45528330	      4.31934150	     -2.44199950	    -11.65088847	     25.32717357	     25.32717357	     11.12393438	     -0.84314651	     -9.45837506	     23.57889643	     -5.92718951	      0.85426525	     21.82761102	     21.82761102	      8.74207394	     -8.92510432	     -1.79661274	     -7.13977326	      3.59070596	      4.63923995	     41.41706502	    -13.84325311	     -2.30094051	     81.90585430	     44.90984694	      0.00000000	      0.00000000	     -7.05192811	    -16.30729898	     12.67467288	     36.99851123	     45.08824771	      0.00000000	      0.00000000
     25.53414286	     -6.73169512	     -5.80011282	      1.56310656	      1.00518197	      0.93020305	      0.45066532	      6.22305847	     -3.38609402	    -10.80443609	     29.28513896	     29.28513896	      9.96600823	     -2.74788636	    -10.57249087	     22.90198902	     -5.51619186	      0.44746417	     21.70615358	     21.70615358	      9.06463888	     -9.34290070	     -1.81221902	     -7.41792455	      3.62851987	      4.55406314	     38.86085379	    -14.06240302	     -2.46432372	     79.21893604	     44.99679050	      0.00000000	      0.00000000	     -5.35003243	    -16.26669739	     12.48702407	     37.11400569	     45.14382631	      0.00000000	      0.00000000
     25.55657143	     -6.57409779	     -5.76215332	      1.06174349	      1.00542936	      0.93033737	      0.44614104	      8.06168595	     -3.84188665	     -9.46264530	     32.86728787	     32.86728787	      6.59162076	     -7.13551406	    -16.05086786	     22.41641298	     -5.17420212	      0.55084385	     21.96177816	     21.96177816	      9.37625993	    -10.52328238	     -1.66777517	     -7.49742589	      3.95519130	      4.23978683	     37.13101378	    -13.45484608	     -3.53808162	     72.91914203	     45.25199589	      0.00000000	      0.00000000	     -2.96425349	    -15.72505726	     11.98689811	     35.21466194	     45.31672206	      0.00000000	      0.00000000
